<?xml version="1.0" encoding="UTF-8"?>
<svg id="Layer_1" xmlns="http://www.w3.org/2000/svg" viewBox="0 0 563.02 563.02">
  <defs>
    <style>
      .cls-1 {
        fill: white;
      }
    </style>
  </defs>
  <path class="cls-1" d="M235.23,306.73c9.69.18,12.95-3.69,10.88-12.81-.67-2.88-.99-5.89-1.89-8.7-6.2-19.01-24.27-30.97-44.95-29.91-21.71,1.1-39.06,15.96-43.26,36.99-3.98,19.96,6.61,41.67,24.75,50.73,17.44,8.7,42.59,4.59,54.95-8.81,3.1-3.35,5.24-6.9,1.66-10.68-4.43-4.7-8.25-2.05-12.41,1.53-20.83,17.87-47.47,9.33-54.48-18.47,22.16,0,43.47-.27,64.75.13ZM202.73,269.42c14.54.38,23.31,7.19,28.41,22.45h-59.69c6.2-16.52,15.35-22.86,31.29-22.45Z"/>
  <path class="cls-1" d="M307.54,306.46c10.07.45,20.16.11,30.25.11h23.55c17.28.02,19.96-3.69,14.63-20.61-.88-2.81-2.09-5.57-3.53-8.16-12.29-22.12-42.73-29.58-64.19-15.82-22.72,14.56-28.43,46.77-12,67.63,16.74,21.26,48.77,24.39,68.64,6.61,3.87-3.44,8.92-7.44,3.71-12.92-5.03-5.28-8.97-.81-13.15,2.74-18.03,15.33-45.27,8.36-52.41-13.1-1.44-4.38-1.39-6.74,4.5-6.47ZM334.22,269.38c14.52.38,23.37,7.28,28.36,22.48h-59.72c6.27-16.47,15.51-22.86,31.35-22.48Z"/>
  <path class="cls-1" d="M85.12,265.32c10.45-7.36,20.83-11.03,32.43-8.86,18.86,3.54,29.64,17.22,31.21,40.79.87,13.03.14,26.16.3,39.24.06,5.26-1.68,8.97-7.37,9.1-6.39.14-8.02-3.92-7.94-9.63.17-13.08.23-26.17-.03-39.25-.32-15.63-8.69-26.01-21.24-26.93-14.36-1.05-24.82,7.78-26.41,24.32-1.31,13.71-.79,27.6-.87,41.41-.03,5.37-.8,9.89-7.43,10.16-7.27.31-7.15-4.78-7.14-9.9.04-36.63.03-73.27.01-109.91,0-4.94-.6-10.32,6.75-10.29,7.49.04,7.8,5.3,7.76,10.91-.09,12.34-.03,24.67-.03,38.83Z"/>
  <path class="cls-1" d="M254.19,274.45c0-16.45.03-32.89-.03-49.34-.02-5.13-.12-10.17,7.16-9.86,6.73.28,7.35,4.92,7.35,10.2-.04,30.65.04,61.3,0,91.94-.01,8.36-.19,16.51,12.21,14.29,4.79-.86,5.66,3.08,5.93,6.27.37,4.39-2.54,6.49-6.71,7.44-14.11,3.2-25.43-5.89-25.81-21.61-.4-16.44-.09-32.89-.1-49.33Z"/>
  <path class="cls-1" d="M393.54,297.25c0-7.62-.17-15.24.07-22.86.12-3.83-1.16-5.33-4.99-4.96-2.21.21-4.53.23-6.7-.19-3.73-.73-5.88-3.05-5.73-7.08.15-4.03,2.39-6.02,6.24-6.58,3.48-.51,8.08,1.69,10.24-1.09,2.38-3.06.66-7.77.85-11.75.15-3.13-.12-6.29.14-9.41.35-4.06,2.59-6.72,6.82-6.93,4.59-.23,7.3,2.37,7.58,6.77.37,5.8.39,11.65.16,17.46-.15,3.87,1.25,5.17,5.04,4.96,4.69-.26,9.41-.05,14.12-.04,4.53.01,7.45,2.28,7.56,6.77.11,4.54-2.91,6.91-7.31,7.08-4.93.2-9.87.23-14.8.03-3.57-.15-4.63,1.31-4.6,4.74.15,14.79-.12,29.58.2,44.37.24,10.78,4.77,14.87,15.4,15.15,2.21.06,4.54.12,6.59.83,3.3,1.15,5.01,3.81,4.46,7.36-.5,3.24-2.7,5.19-5.91,5.56-22.46,2.59-34.31-9.66-35.3-28.01-.4-7.37-.07-14.79-.07-22.18-.02,0-.05,0-.07,0Z"/>
  <path class="cls-1" d="M450.95,297.25c0-7.62-.17-15.24.07-22.86.12-3.83-1.16-5.33-4.99-4.96-2.21.21-4.53.23-6.7-.19-3.73-.73-5.88-3.05-5.73-7.08.15-4.03,2.39-6.02,6.24-6.58,3.48-.51,8.08,1.69,10.24-1.09,2.38-3.06.66-7.77.85-11.75.15-3.13-.12-6.29.14-9.41.35-4.06,2.59-6.72,6.82-6.93,4.59-.23,7.3,2.37,7.58,6.77.37,5.8.39,11.65.16,17.46-.15,3.87,1.25,5.17,5.04,4.96,4.69-.26,9.41-.05,14.12-.04,4.53.01,7.45,2.28,7.56,6.77.11,4.54-2.91,6.91-7.31,7.08-4.93.2-9.87.23-14.8.03-3.57-.15-4.63,1.31-4.6,4.74.15,14.79-.12,29.58.2,44.37.24,10.78,4.77,14.87,15.4,15.15,2.21.06,4.54.12,6.59.83,3.3,1.15,5.01,3.81,4.46,7.36-.5,3.24-2.7,5.19-5.91,5.56-22.46,2.59-34.31-9.66-35.3-28.01-.4-7.37-.07-14.79-.07-22.18-.02,0-.05,0-.07,0Z"/>
</svg>
