<svg width="423" height="133" viewBox="0 0 423 133" fill="none" xmlns="http://www.w3.org/2000/svg">
<path d="M165.23 91.7303C174.92 91.9103 178.18 88.0403 176.11 78.9203C175.44 76.0403 175.12 73.0303 174.22 70.2203C168.02 51.2103 149.95 39.2502 129.27 40.3102C107.56 41.4102 90.21 56.2702 86.01 77.3002C82.03 97.2602 92.62 118.97 110.76 128.03C128.2 136.73 153.35 132.62 165.71 119.22C168.81 115.87 170.95 112.32 167.37 108.54C162.94 103.84 159.12 106.49 154.96 110.07C134.13 127.94 107.49 119.4 100.48 91.6003C122.64 91.6003 143.95 91.3303 165.23 91.7303ZM132.73 54.4203C147.27 54.8003 156.04 61.6102 161.14 76.8702H101.45C107.65 60.3502 116.8 54.0103 132.74 54.4203H132.73Z" fill="white"/>
<path d="M237.539 91.4601C247.609 91.9101 257.699 91.5702 267.789 91.5702H291.339C308.619 91.5902 311.299 87.8801 305.969 70.9601C305.089 68.1501 303.879 65.3901 302.439 62.8001C290.149 40.6801 259.709 33.2202 238.249 46.9802C215.529 61.5402 209.819 93.7501 226.249 114.61C242.989 135.87 275.019 139 294.889 121.22C298.759 117.78 303.809 113.78 298.599 108.3C293.569 103.02 289.629 107.49 285.449 111.04C267.419 126.37 240.179 119.4 233.039 97.9401C231.599 93.5601 231.649 91.2001 237.539 91.4701V91.4601ZM264.219 54.3801C278.739 54.7601 287.589 61.6601 292.579 76.8601H232.859C239.129 60.3901 248.369 54.0001 264.209 54.3801H264.219Z" fill="white"/>
<path d="M15.1207 50.3204C25.5707 42.9604 35.9507 39.2904 47.5507 41.4604C66.4107 45.0004 77.1907 58.6804 78.7607 82.2504C79.6307 95.2804 78.9007 108.41 79.0607 121.49C79.1207 126.75 77.3807 130.46 71.6907 130.59C65.3007 130.73 63.6707 126.67 63.7507 120.96C63.9207 107.88 63.9807 94.7904 63.7207 81.7104C63.4007 66.0804 55.0307 55.7004 42.4807 54.7804C28.1207 53.7304 17.6607 62.5604 16.0707 79.1004C14.7607 92.8104 15.2807 106.7 15.2007 120.51C15.1707 125.88 14.4007 130.4 7.77072 130.67C0.500722 130.98 0.620723 125.89 0.630723 120.77C0.670723 84.1404 0.660725 47.5004 0.640725 10.8604C0.640725 5.92043 0.0407252 0.540437 7.39073 0.570437C14.8807 0.610437 15.1907 5.87043 15.1507 11.4804C15.0607 23.8204 15.1207 36.1504 15.1207 50.3104V50.3204Z" fill="white"/>
<path d="M184.189 59.4499C184.189 42.9999 184.219 26.5599 184.159 10.1099C184.139 4.97993 184.039 -0.0600692 191.319 0.249931C198.049 0.529931 198.669 5.16993 198.669 10.4499C198.629 41.0999 198.709 71.7499 198.669 102.39C198.659 110.75 198.479 118.9 210.879 116.68C215.669 115.82 216.539 119.76 216.809 122.95C217.179 127.34 214.269 129.44 210.099 130.39C195.989 133.59 184.669 124.5 184.289 108.78C183.889 92.3399 184.199 75.8899 184.189 59.4499Z" fill="white"/>
<path d="M323.541 82.2498C323.541 74.6298 323.371 67.0099 323.611 59.3899C323.731 55.5599 322.451 54.0598 318.621 54.4298C316.411 54.6398 314.091 54.6598 311.921 54.2398C308.191 53.5098 306.041 51.1898 306.191 47.1598C306.341 43.1298 308.581 41.1398 312.431 40.5798C315.911 40.0698 320.511 42.2698 322.671 39.4898C325.051 36.4298 323.331 31.7198 323.521 27.7398C323.671 24.6098 323.401 21.4498 323.661 18.3298C324.011 14.2698 326.251 11.6098 330.481 11.3998C335.071 11.1698 337.781 13.7698 338.061 18.1698C338.431 23.9698 338.451 29.8198 338.221 35.6298C338.071 39.4998 339.471 40.7998 343.261 40.5898C347.951 40.3298 352.671 40.5398 357.381 40.5498C361.911 40.5598 364.831 42.8298 364.941 47.3198C365.051 51.8598 362.031 54.2298 357.631 54.3998C352.701 54.5998 347.761 54.6298 342.831 54.4298C339.261 54.2798 338.201 55.7398 338.231 59.1698C338.381 73.9598 338.111 88.7498 338.431 103.54C338.671 114.32 343.201 118.41 353.831 118.69C356.041 118.75 358.371 118.81 360.421 119.52C363.721 120.67 365.431 123.33 364.881 126.88C364.381 130.12 362.181 132.07 358.971 132.44C336.511 135.03 324.661 122.78 323.671 104.43C323.271 97.0598 323.601 89.6398 323.601 82.2498C323.581 82.2498 323.551 82.2498 323.531 82.2498H323.541Z" fill="white"/>
<path d="M380.949 82.2498C380.949 74.6298 380.779 67.0099 381.019 59.3899C381.139 55.5599 379.859 54.0598 376.029 54.4298C373.819 54.6398 371.499 54.6598 369.329 54.2398C365.599 53.5098 363.449 51.1898 363.599 47.1598C363.749 43.1298 365.989 41.1398 369.839 40.5798C373.319 40.0698 377.919 42.2698 380.079 39.4898C382.459 36.4298 380.739 31.7198 380.929 27.7398C381.079 24.6098 380.809 21.4498 381.069 18.3298C381.419 14.2698 383.659 11.6098 387.889 11.3998C392.479 11.1698 395.189 13.7698 395.469 18.1698C395.839 23.9698 395.859 29.8198 395.629 35.6298C395.479 39.4998 396.879 40.7998 400.669 40.5898C405.359 40.3298 410.079 40.5398 414.789 40.5498C419.319 40.5598 422.239 42.8298 422.349 47.3198C422.459 51.8598 419.439 54.2298 415.039 54.3998C410.109 54.5998 405.169 54.6298 400.239 54.4298C396.669 54.2798 395.609 55.7398 395.639 59.1698C395.789 73.9598 395.519 88.7498 395.839 103.54C396.079 114.32 400.609 118.41 411.239 118.69C413.449 118.75 415.779 118.81 417.829 119.52C421.129 120.67 422.839 123.33 422.289 126.88C421.789 130.12 419.589 132.07 416.379 132.44C393.919 135.03 382.069 122.78 381.079 104.43C380.679 97.0598 381.009 89.6398 381.009 82.2498C380.989 82.2498 380.959 82.2498 380.939 82.2498H380.949Z" fill="white"/>
</svg>
